<?xml version="1.0" encoding="utf-8"?>
<!-- Generator: Adobe Illustrator 23.0.3, SVG Export Plug-In . SVG Version: 6.00 Build 0)  -->
<svg version="1.1" id="Layer_1" xmlns="http://www.w3.org/2000/svg" xmlns:xlink="http://www.w3.org/1999/xlink" x="0px" y="0px"
	 viewBox="0 0 240 47.55" style="enable-background:new 0 0 240 47.55;" xml:space="preserve">
<style type="text/css">
	.st0{fill:#0D6733;}
	.st1{fill:#8EC044;}
	.st2{fill:#0C6733;}
</style>
<g>
	<path class="st0" d="M19.67,25.02c0,0.73-0.43,0.96-1,0.96H6.07c-0.7,0-1.06-0.17-1.06-1.06V3.88c0-0.6,0.3-0.93,0.93-0.93h3.35
		c0.73,0,1,0.23,1,1v17.59h8.43c0.66,0,0.96,0.33,0.96,0.96V25.02z"/>
	<path class="st0" d="M25.71,25.06c0,0.63-0.33,0.93-0.86,0.93h-3.22c-0.5,0-0.9-0.27-0.9-0.9V3.65c0-0.6,0.17-0.93,0.8-1.03
		l3.25-0.43c0.63-0.1,0.93,0.17,0.93,0.7V25.06z"/>
	<path class="st0" d="M35.6,26.42c-5.61,0-8.23-3.62-8.23-8.56c0-4.88,3.09-8.5,8.46-8.5c5.61,0,8.23,3.62,8.23,8.56
		C44.07,22.8,40.98,26.42,35.6,26.42z M35.77,13.28c-2.46,0-3.25,2.12-3.25,4.55c0,2.46,0.7,4.68,3.15,4.68s3.25-2.19,3.25-4.61
		C38.92,15.43,38.22,13.28,35.77,13.28z"/>
	<path class="st0" d="M55.55,10.79c0.2-0.66,0.56-0.96,1.23-0.96h3.42c0.56,0,0.66,0.5,0.5,0.93l-6.57,17.06
		c-1.53,3.95-3.52,5.38-7.83,5.38c-0.76,0-1.33-0.07-1.99-0.2c-0.63-0.13-0.63-0.53-0.56-1.06l0.3-2.09
		c0.1-0.66,0.37-0.73,0.66-0.73c0.33,0,0.8,0.1,1.63,0.1c1.96,0,2.82-0.63,3.39-2.09l0.4-1.03l-6.14-15.27c-0.2-0.46,0.03-1,0.6-1
		h3.92c0.56,0,0.86,0.27,1,0.66l3.09,9.82h0.1L55.55,10.79z"/>
	<path class="st0" d="M71.81,3.65c0-0.6,0.17-0.93,0.8-1.03l3.25-0.43c0.63-0.1,0.93,0.17,0.93,0.7v22.17c0,0.66-0.4,0.93-0.9,0.93
		H73.1c-0.56,0-0.83-0.3-0.86-0.66l-0.07-0.7c-0.93,1.03-2.62,1.79-4.38,1.79c-4.65,0-6.97-3.72-6.97-8.23
		c0-4.41,2.36-8.83,7.27-8.83c1.46,0,2.82,0.5,3.72,1.33V3.65z M71.81,14.44c-0.6-0.56-1.66-1.06-2.62-1.06
		c-2.42,0-3.19,2.52-3.19,4.51c0,2.06,0.56,4.48,3.09,4.48c0.96,0,2.19-0.63,2.72-1.19V14.44z"/>
	<path class="st0" d="M84.89,26.42c-1.76,0-3.95-0.53-5.54-1.23c-0.46-0.2-0.53-0.56-0.4-1l0.66-2.16c0.13-0.46,0.4-0.73,1.03-0.46
		c1.63,0.66,3.09,1.03,4.35,1.03c1.16,0,1.79-0.43,1.79-1.16c0-0.63-0.33-0.96-1.56-1.43l-2.49-0.93c-2.26-0.83-3.75-2.42-3.75-4.81
		c0-3.32,3.39-4.91,6.34-4.91c1.73,0,3.39,0.27,5.14,1.06c0.43,0.2,0.53,0.5,0.4,0.93l-0.7,2.26c-0.13,0.43-0.56,0.46-0.93,0.33
		c-1.43-0.5-2.49-0.86-3.85-0.86c-1.1,0-1.59,0.53-1.59,1.06c0,0.4,0.13,0.83,1.26,1.26l2.82,1.13c2.36,0.93,3.68,2.32,3.68,4.55
		C91.56,24.89,88.37,26.42,84.89,26.42z"/>
	<path class="st1" d="M100.42,18.35h-1.86v6.74c0,0.56-0.23,0.9-1,0.9h-3.32c-0.6,0-0.96-0.13-0.96-0.86V3.98
		c0-0.83,0.23-1.03,1-1.03h5.18c3.85,0,6.5,0.66,8.2,2.52c1.19,1.33,1.79,3.15,1.79,4.91C109.45,15.66,105.36,18.35,100.42,18.35z
		 M100.19,7.04h-1.63v7.27h1.39c2.39,0,4.18-0.93,4.18-3.68C104.14,8.1,102.68,7.04,100.19,7.04z"/>
	<path class="st1" d="M116.08,25.02c0,0.66-0.3,0.96-0.96,0.96h-2.99c-0.7,0-1.03-0.23-1.03-0.96V3.65c0-0.6,0.17-0.93,0.8-1.03
		l3.25-0.43c0.63-0.1,0.93,0.17,0.93,0.7v8.13c1.29-1.1,3.42-1.66,5.08-1.66c3.62,0,5.24,2.32,5.24,5.91v9.76
		c0,0.66-0.3,0.96-0.96,0.96h-2.99c-0.7,0-1.03-0.23-1.03-0.96v-8.86c0-1.39-0.4-2.32-1.89-2.32c-1.1,0-2.52,0.5-3.45,1.29V25.02z"
		/>
	<path class="st1" d="M145.49,25.22c0,0.5-0.33,0.76-0.8,0.76h-1.76c-1.96,0-2.75-0.56-3.19-1.53h-0.07
		c-0.9,1.03-3.02,1.96-4.65,1.96c-4.78,0-7-3.78-7-8.2c0-5.87,3.65-8.86,7.3-8.86c1.86,0,3.35,0.86,4.05,1.86l0.1-0.73
		c0.07-0.43,0.33-0.66,0.76-0.66h2.99c0.46,0,0.8,0.27,0.8,0.8v11.45c0,0.33,0.13,0.56,0.5,0.56h0.27c0.46,0,0.7,0.17,0.7,0.66
		V25.22z M139.05,14.6c-0.6-0.53-1.69-1.13-2.69-1.13c-1.63,0-3.15,1.33-3.15,4.41c0,2.06,0.53,4.51,3.05,4.51
		c1.19,0,2.39-0.9,2.79-1.39V14.6z"/>
	<path class="st1" d="M152.46,15.13v9.92c0,0.6-0.27,0.93-0.93,0.93h-3.12c-0.6,0-0.93-0.3-0.93-0.93V10.79
		c0-0.8,0.4-0.96,0.96-0.96h2.69c0.63,0,0.93,0.17,0.96,0.66l0.07,1c1.19-1.43,2.36-2.12,4.18-2.12c1,0,1.36,0.2,1.26,0.9l-0.5,3.15
		c-0.07,0.37-0.23,0.53-0.53,0.53c-0.33,0-0.5-0.07-1.06-0.07C154.42,13.87,153.29,14.3,152.46,15.13z"/>
	<path class="st1" d="M163.41,25.02c0,0.7-0.3,0.96-0.96,0.96h-2.99c-0.7,0-1.03-0.23-1.03-0.96V10.69c0-0.6,0.37-0.86,0.93-0.86
		h2.72c0.56,0,0.9,0.17,0.96,0.7l0.07,0.63c1.33-1.13,3.05-1.79,4.75-1.79c2.22,0,3.45,1.1,4.15,2.22c1.49-1.49,3.68-2.22,5.77-2.22
		c2.59,0,4.22,1.46,4.81,2.82c0.6,1.33,0.66,2.82,0.66,5.18v7.67c0,0.7-0.3,0.96-0.96,0.96h-2.99c-0.7,0-1.03-0.23-1.03-0.96v-8.89
		c0-1.33-0.3-2.39-1.79-2.39c-1.16,0-2.52,0.63-3.42,1.39v9.89c0,0.7-0.3,0.96-0.96,0.96h-2.72c-0.7,0-1.03-0.23-1.03-0.96v-8.89
		c0-1.33-0.3-2.39-1.79-2.39c-1.1,0-2.22,0.56-3.15,1.39V25.02z"/>
	<path class="st1" d="M202.97,25.22c0,0.5-0.33,0.76-0.8,0.76h-1.76c-1.96,0-2.75-0.56-3.19-1.53h-0.07
		c-0.9,1.03-3.02,1.96-4.65,1.96c-4.78,0-7-3.78-7-8.2c0-5.87,3.65-8.86,7.3-8.86c1.86,0,3.35,0.86,4.05,1.86l0.1-0.73
		c0.07-0.43,0.33-0.66,0.76-0.66h2.99c0.46,0,0.8,0.27,0.8,0.8v11.45c0,0.33,0.13,0.56,0.5,0.56h0.27c0.46,0,0.7,0.17,0.7,0.66
		V25.22z M196.53,14.6c-0.6-0.53-1.69-1.13-2.69-1.13c-1.63,0-3.15,1.33-3.15,4.41c0,2.06,0.53,4.51,3.05,4.51
		c1.19,0,2.39-0.9,2.79-1.39V14.6z"/>
	<path class="st1" d="M217.41,24.43c0.2,0.66,0,0.83-0.43,1.03c-1.49,0.66-3.29,0.96-5.04,0.96c-4.81,0-8.2-2.79-8.2-8.26
		c0-5.38,3.22-8.79,8.5-8.79c1.56,0,3.05,0.23,4.61,0.9c0.46,0.2,0.46,0.5,0.37,0.96l-0.53,2.39c-0.13,0.53-0.46,0.5-0.9,0.33
		c-0.93-0.37-1.89-0.63-2.92-0.63c-2.59,0-3.98,1.73-3.98,4.58c0,3.22,1.46,4.61,4.15,4.61c1.03,0,1.76-0.17,2.92-0.6
		c0.36-0.13,0.7-0.2,0.83,0.3L217.41,24.43z"/>
	<path class="st1" d="M229.79,10.79c0.2-0.66,0.56-0.96,1.23-0.96h3.42c0.56,0,0.66,0.5,0.5,0.93l-6.57,17.06
		c-1.53,3.95-3.52,5.38-7.83,5.38c-0.76,0-1.33-0.07-1.99-0.2c-0.63-0.13-0.63-0.53-0.56-1.06l0.3-2.09
		c0.1-0.66,0.37-0.73,0.66-0.73c0.33,0,0.8,0.1,1.63,0.1c1.96,0,2.82-0.63,3.39-2.09l0.4-1.03l-6.14-15.27c-0.2-0.46,0.03-1,0.6-1
		h3.92c0.56,0,0.86,0.27,1,0.66l3.09,9.82h0.1L229.79,10.79z"/>
</g>
<g>
	<path class="st2" d="M99.47,43.56c-4.1,0-6.4-2.92-6.4-7.3c0-4.36,2.47-7.42,6.52-7.42c4.26,0,6.4,3.16,6.4,7.3
		C105.99,40.72,103.3,43.56,99.47,43.56z M99.51,31.59c-1.77,0-2.98,1.57-2.98,4.59c0,3.22,1.1,4.63,3.04,4.63
		c1.79,0,2.96-1.45,2.96-4.61C102.52,32.92,101.44,31.59,99.51,31.59z"/>
	<path class="st2" d="M111.05,42.7c0,0.39-0.16,0.59-0.57,0.59h-1.92c-0.35,0-0.57-0.18-0.57-0.55v-8.79c0-0.39,0.14-0.59,0.59-0.59
		h1.67c0.31,0,0.53,0.08,0.57,0.43l0.04,0.43c0.94-0.73,2.06-1.14,3.26-1.14c2.24,0,3.22,1.41,3.22,3.63v5.97
		c0,0.41-0.14,0.61-0.59,0.61h-1.88c-0.43,0-0.59-0.22-0.59-0.61v-5.42c0-0.86-0.22-1.43-1.16-1.43c-0.67,0-1.51,0.31-2.08,0.8V42.7
		z"/>
	<path class="st2" d="M122.03,42.72c0,0.39-0.2,0.57-0.53,0.57h-1.98c-0.31,0-0.55-0.16-0.55-0.55V29.57c0-0.37,0.1-0.57,0.49-0.63
		l2-0.27c0.39-0.06,0.57,0.1,0.57,0.43V42.72z"/>
	<path class="st2" d="M125.72,32.18c-0.77,0-1.65-0.55-1.65-1.53c0-1,0.82-1.57,1.65-1.57c0.82,0,1.63,0.57,1.63,1.55
		C127.36,31.61,126.5,32.18,125.72,32.18z M127.27,42.7c0,0.41-0.18,0.59-0.59,0.59h-1.83c-0.43,0-0.63-0.14-0.63-0.59v-8.81
		c0-0.41,0.27-0.53,0.63-0.53h1.83c0.39,0,0.59,0.1,0.59,0.53V42.7z"/>
	<path class="st2" d="M132.04,42.7c0,0.39-0.16,0.59-0.57,0.59h-1.92c-0.35,0-0.57-0.18-0.57-0.55v-8.79c0-0.39,0.14-0.59,0.59-0.59
		h1.67c0.31,0,0.53,0.08,0.57,0.43l0.04,0.43c0.94-0.73,2.06-1.14,3.26-1.14c2.24,0,3.22,1.41,3.22,3.63v5.97
		c0,0.41-0.14,0.61-0.59,0.61h-1.88c-0.43,0-0.59-0.22-0.59-0.61v-5.42c0-0.86-0.22-1.43-1.16-1.43c-0.67,0-1.51,0.31-2.08,0.8V42.7
		z"/>
	<path class="st2" d="M149.43,38.54c0,0.49-0.22,0.59-0.73,0.59h-5.71c0.24,1.28,1.39,2,2.63,2c0.9,0,1.71-0.18,2.53-0.51
		c0.29-0.12,0.53-0.1,0.63,0.27l0.33,1.28c0.1,0.39-0.04,0.55-0.35,0.69c-1.08,0.51-2.51,0.69-3.69,0.69c-3.24,0-5.3-2-5.3-5.26
		c0-3.16,2.14-5.22,5.28-5.22c1.3,0,2.41,0.49,3.16,1.3c1.02,1.08,1.22,2.47,1.22,3.89V38.54z M146.44,37.2
		c0-0.88-0.51-1.75-1.57-1.75c-1.02,0-1.69,0.79-1.83,1.75H146.44z"/>
	<path class="st2" d="M161.18,43.29h-4.16c-0.41,0-0.65-0.1-0.65-0.63V29.8c0-0.45,0.12-0.65,0.67-0.65h3.22
		c5.06,0,8.34,1.69,8.34,7.11C168.6,41.15,165.32,43.29,161.18,43.29z M160.75,31.94h-1.14v8.6h1.45c2.04,0,4.08-0.88,4.08-4.3
		C165.13,33.2,163.62,31.94,160.75,31.94z"/>
	<path class="st2" d="M174.67,43.56c-3.45,0-5.06-2.22-5.06-5.26c0-3,1.9-5.22,5.2-5.22c3.45,0,5.06,2.22,5.06,5.26
		C179.87,41.33,177.98,43.56,174.67,43.56z M174.78,35.48c-1.51,0-2,1.3-2,2.79c0,1.51,0.43,2.87,1.94,2.87s2-1.35,2-2.83
		C176.71,36.81,176.28,35.48,174.78,35.48z"/>
	<path class="st2" d="M188.94,42.33c0.12,0.41,0,0.51-0.26,0.63c-0.92,0.41-2.02,0.59-3.1,0.59c-2.96,0-5.04-1.71-5.04-5.08
		c0-3.3,1.98-5.4,5.22-5.4c0.96,0,1.88,0.14,2.83,0.55c0.29,0.12,0.29,0.31,0.22,0.59l-0.33,1.47c-0.08,0.33-0.29,0.31-0.55,0.2
		c-0.57-0.22-1.16-0.39-1.79-0.39c-1.59,0-2.45,1.06-2.45,2.81c0,1.98,0.9,2.83,2.55,2.83c0.63,0,1.08-0.1,1.79-0.37
		c0.22-0.08,0.43-0.12,0.51,0.18L188.94,42.33z"/>
	<path class="st2" d="M194.2,33.36h2.2c0.29,0,0.49,0.12,0.49,0.43v1.18c0,0.31-0.2,0.47-0.49,0.47h-2.2v3.98
		c0,1.06,0.12,1.71,1.02,1.71c0.51,0,0.9-0.12,1.3-0.24c0.24-0.08,0.51-0.1,0.57,0.22l0.24,1.3c0.06,0.29,0.02,0.47-0.35,0.63
		c-0.69,0.31-1.63,0.51-2.57,0.51c-1.14,0-2.06-0.27-2.61-0.92c-0.65-0.77-0.69-1.61-0.69-3.28v-3.91h-0.82
		c-0.49,0-0.57-0.12-0.57-0.67v-0.88c0-0.29,0.16-0.53,0.47-0.53h0.94v-2.02c0-0.37,0.1-0.57,0.49-0.63l2-0.26
		c0.39-0.06,0.57,0.1,0.57,0.43V33.36z"/>
	<path class="st2" d="M202.52,43.56c-3.45,0-5.06-2.22-5.06-5.26c0-3,1.9-5.22,5.2-5.22c3.45,0,5.06,2.22,5.06,5.26
		C207.72,41.33,205.82,43.56,202.52,43.56z M202.62,35.48c-1.51,0-2,1.3-2,2.79c0,1.51,0.43,2.87,1.94,2.87c1.51,0,2-1.35,2-2.83
		C204.56,36.81,204.13,35.48,202.62,35.48z"/>
	<path class="st2" d="M212.21,36.63v6.1c0,0.37-0.16,0.57-0.57,0.57h-1.92c-0.37,0-0.57-0.18-0.57-0.57v-8.77
		c0-0.49,0.24-0.59,0.59-0.59h1.65c0.39,0,0.57,0.1,0.59,0.41l0.04,0.61c0.73-0.88,1.45-1.3,2.57-1.3c0.61,0,0.84,0.12,0.77,0.55
		l-0.31,1.94c-0.04,0.22-0.14,0.33-0.33,0.33c-0.2,0-0.31-0.04-0.65-0.04C213.41,35.85,212.72,36.12,212.21,36.63z"/>
</g>
</svg>
